<?xml version="1.0" encoding="UTF-8"?>
<svg width="200px" height="200px" viewBox="0 0 200 200" version="1.1" xmlns="http://www.w3.org/2000/svg" xmlns:xlink="http://www.w3.org/1999/xlink">
    <!-- Generator: Sketch 54 (76480) - https://sketchapp.com -->
    <title>Group</title>
    <desc>Created with Sketch.</desc>
    <g id="Page-1" stroke="none" stroke-width="1" fill="none" fill-rule="evenodd">
        <g id="Group">
            <g id="Group-4">
                <circle id="Oval-3" fill="#189EFF" fill-rule="nonzero" cx="100" cy="100" r="100"></circle>
                <g id="Group-2" transform="translate(54.545455, 36.363636)" fill="#FFFFFF">
                    <g id="Group">
                        <polygon id="Fill-1" points="8.27444931 0 0 26.3636364 82.6346416 26.3636364 90.9090909 0"></polygon>
                        <polygon id="Fill-2" points="0 46.5757576 24.7933884 46.5757576 24.7933884 29 0 29"></polygon>
                        <path d="M49.6460937,49.4318182 L0,49.4318182 L7.38992872,71.535235 L50.8950972,71.535235 C65.675371,71.535235 73.7939458,78.7911039 67.4331777,90.2543138 C59.7772931,102.140524 44.9236342,102.103013 45.8089392,102.121769 C64.8427367,103.125739 93.7260598,83.7028874 85.2603372,64.5803451 C82.0165088,57.3023717 73.2214382,49.4318182 49.6460937,49.4318182" id="Fill-3"></path>
                        <path d="M43.2727948,127.624722 L0,127.624722 L7.35047456,105.538767 L45.4545172,105.538767 C68.4847755,105.538767 90.4671403,86.1311474 86.7094879,70.5227273 C86.7094879,70.5227273 95.5055399,87.3580953 87.6376932,106.782894 C77.1811218,129.074772 54.1202166,127.624722 43.2727948,127.624722" id="Fill-5"></path>
                    </g>
                </g>
            </g>
        </g>
    </g>
</svg>