<?xml version="1.0" encoding="UTF-8"?>
<svg width="119px" height="114px" viewBox="0 0 119 114" version="1.1" xmlns="http://www.w3.org/2000/svg" xmlns:xlink="http://www.w3.org/1999/xlink">
    <!-- Generator: Sketch 61 (89581) - https://sketch.com -->
    <title>SW6_Badges-Master_SW-6-1_Badge-32</title>
    <desc>Created with Sketch.</desc>
    <defs>
        <linearGradient x1="99.9093135%" y1="49.951645%" x2="-0.0321030127%" y2="49.951645%" id="linearGradient-1">
            <stop stop-color="#189EFF" offset="0%"></stop>
            <stop stop-color="#1FA5FE" offset="18.8%"></stop>
            <stop stop-color="#33B8FB" offset="46.56%"></stop>
            <stop stop-color="#54D7F6" offset="79.7%"></stop>
            <stop stop-color="#6BEDF2" offset="100%"></stop>
        </linearGradient>
        <linearGradient x1="49.9980617%" y1="100.074806%" x2="49.9980617%" y2="0.0338997693%" id="linearGradient-2">
            <stop stop-color="#189EFF" offset="0%"></stop>
            <stop stop-color="#1FA5FE" offset="18.8%"></stop>
            <stop stop-color="#33B8FB" offset="46.56%"></stop>
            <stop stop-color="#54D7F6" offset="79.7%"></stop>
            <stop stop-color="#6BEDF2" offset="100%"></stop>
        </linearGradient>
    </defs>
    <g id="Page-1" stroke="none" stroke-width="1" fill="none" fill-rule="evenodd">
        <g id="SW6_Badges-Master_SW-6-1_Badge-32" fill-rule="nonzero">
            <g id="Group" transform="translate(6.000000, 0.000000)" fill="url(#linearGradient-1)">
                <path d="M8.2,25.2 C13.4,16.7 21.5,9.8 30.9,5.5 C40.3,1.1 50.8,-0.8 60.6,0.9 C70.4,2.6 79.6,7.9 86.9,14.9 C94.2,21.9 99.7,30.5 102.3,39.8 C104.9,49.2 104.6,59.3 102.1,68.9 C99.6,78.5 94.7,87.6 87.5,94.5 C80.3,101.4 70.7,105.9 60.6,107.6 C50.5,109.3 39.8,108.1 30.4,103.9 C21,99.7 13,92.5 7.9,83.7 C2.8,74.9 0.7,64.6 0.7,54.3 C0.7,44 3,33.8 8.2,25.2 Z" id="Path"></path>
            </g>
            <g id="Group" opacity="0.8" transform="translate(0.000000, 11.000000)" fill="url(#linearGradient-2)">
                <path d="M31.5,23.7 C42.9,15.6 50.5,6.9 62.1,2.8 C73.7,-1.3 89.3,-0.7 100.9,7.4 C112.5,15.5 120,31.2 118.8,45.6 C117.6,60 107.6,73.2 96,83.6 C84.4,94 71.2,101.7 57.1,102.6 C43,103.5 28.1,97.6 16.6,87.2 C5.2,76.8 -2.7,61.8 1,50.6 C4.8,39.4 20.1,31.8 31.5,23.7 Z" id="Path"></path>
            </g>
            <path d="M85.2,64.1 C85.2,78.7 72.8,88.8 59.5,88.8 C46,88.8 33.8,78.7 33.8,63.9 C33.8,56.1 37.1,50.8 42.9,43.1 L59.6,20.7 L80.2,20.7 L65.3,40.9 C75.3,42.2 85.2,51.1 85.2,64.1 Z M68,64 C68,58.9 64.2,55.4 59.5,55.4 C54.7,55.4 51,59 51,64 C51,69 54.7,72.8 59.5,72.8 C64.2,72.8 68,69.1 68,64 Z" id="Shape" fill="#FFFFFF"></path>
        </g>
    </g>
</svg>